<svg id="Capa_1" enable-background="new 0 0 512 512" height="512" viewBox="0 0 512 512" width="512" xmlns="http://www.w3.org/2000/svg"><g><path d="m512 256c0 33.52-6.44 65.53-18.16 94.87-143.63 97.31-332.05 97.31-475.68 0-11.72-29.34-18.16-61.35-18.16-94.87 0-46.22 12.25-89.57 33.68-127 44.12-77.07 127.16-129 222.32-129s178.2 51.93 222.32 129c21.43 37.43 33.68 80.78 33.68 127z" fill="#ff80b1"/><path d="m512 256c0 33.52-6.44 65.53-18.16 94.87-143.63 97.31-332.05 97.31-475.68 0-11.72-29.34-18.16-61.35-18.16-94.87 0-46.22 12.25-89.57 33.68-127 44.12 77.07 127.16 129 222.32 129s178.2-51.93 222.32-129c21.43 37.43 33.68 80.78 33.68 127z" fill="#f69"/><g><g><path d="m148.71 410.27c0-6.1-2.16-11.63-5.7-15.94s-8.48-7.4-14.05-8.63c6.15-9.61 5.21-22.7-3.41-31.33-4.94-4.94-11.36-7.35-17.75-7.35-4.75 0-9.48 1.33-13.58 3.95-2.45-11.14-12.37-19.75-24.56-19.75-6.1 0-11.62 2.16-15.93 5.69-4.31 3.55-7.4 8.49-8.63 14.06-8.09-5.18-18.65-5.33-26.94-.1 19.89 49.83 54.99 91.94 99.55 120.6 2.84-1.21 5.5-2.98 7.84-5.31 4.95-4.95 7.36-11.37 7.36-17.76 0-4.75-1.33-9.47-3.95-13.57 11.14-2.45 19.75-12.37 19.75-24.56z" fill="#ffe164"/><path d="m128.96 434.83c2.62 4.1 3.95 8.82 3.95 13.57 0 6.39-2.41 12.81-7.36 17.76-2.34 2.33-5 4.1-7.84 5.31-13.63-8.77-26.38-18.79-38.07-29.92-3.42-3.25-6.75-6.59-9.98-10.03v-100.3c12.19 0 22.11 8.61 24.56 19.75 4.1-2.62 8.83-3.95 13.58-3.95 6.39 0 12.81 2.41 17.75 7.35 8.62 8.63 9.56 21.72 3.41 31.33 5.57 1.23 10.51 4.32 14.05 8.63s5.7 9.84 5.7 15.94c0 12.19-8.61 22.11-19.75 24.56z" fill="#fed500"/><path d="m102.49 410.27c0 14.64-9.6 27.05-22.85 31.28-14.73-14-27.79-29.73-38.87-46.88 5.55-10.26 16.41-17.23 28.89-17.23 18.13 0 32.83 14.7 32.83 32.83z" fill="#ffbc00"/><path d="m102.49 410.27c0 14.64-9.6 27.05-22.85 31.28-3.42-3.25-6.75-6.59-9.98-10.03v-54.08c18.13 0 32.83 14.7 32.83 32.83z" fill="#ff9100"/><path d="m82.215 410.265c0 6.929-5.619 12.548-12.551 12.548s-12.548-5.619-12.548-12.548c0-6.932 5.616-12.551 12.548-12.551s12.551 5.619 12.551 12.551z" fill="#a44f3e"/><path d="m82.215 410.265c0 6.929-5.619 12.548-12.551 12.548v-25.1c6.932.001 12.551 5.62 12.551 12.552z" fill="#964235"/></g><g><g><path d="m230.453 300.958c0-6.098-2.154-11.626-5.7-15.942-3.538-4.308-8.477-7.396-14.048-8.624 6.15-9.611 5.216-22.707-3.408-31.331-4.939-4.939-11.358-7.353-17.75-7.353-4.749 0-9.481 1.332-13.581 3.953-2.448-11.141-12.37-19.748-24.558-19.748-6.098 0-11.617 2.154-15.934 5.692-4.308 3.547-7.396 8.486-8.624 14.057-9.61-6.15-22.707-5.216-31.331 3.4-4.948 4.948-7.361 11.358-7.361 17.75 0 4.749 1.341 9.48 3.962 13.581-11.15 2.448-19.748 12.37-19.748 24.566 0 6.09 2.145 11.626 5.692 15.934s8.477 7.405 14.057 8.624c-6.15 9.61-5.225 22.707 3.4 31.331 4.948 4.939 11.366 7.353 17.75 7.353 4.749 0 9.481-1.332 13.581-3.953 2.448 11.141 12.37 19.748 24.558 19.748 6.098 0 11.617-2.154 15.934-5.7 4.308-3.538 7.396-8.477 8.624-14.048 9.61 6.15 22.715 5.216 31.331-3.4 4.948-4.948 7.361-11.366 7.361-17.759 0-4.749-1.332-9.472-3.953-13.572 11.139-2.449 19.746-12.37 19.746-24.559z" fill="#ffe164"/><path d="m210.705 325.516c2.621 4.1 3.953 8.823 3.953 13.572 0 6.392-2.413 12.811-7.361 17.759-8.615 8.616-21.721 9.55-31.331 3.4-1.228 5.571-4.316 10.51-8.624 14.048-4.316 3.546-9.835 5.7-15.934 5.7v-158.082c12.188 0 22.11 8.607 24.558 19.748 4.1-2.621 8.832-3.953 13.581-3.953 6.392 0 12.811 2.413 17.75 7.353 8.624 8.624 9.559 21.72 3.408 31.331 5.571 1.228 10.51 4.316 14.048 8.624 3.546 4.317 5.7 9.844 5.7 15.942 0 12.189-8.607 22.11-19.748 24.558z" fill="#fed500"/><path d="m184.236 300.958c0 18.122-14.697 32.819-32.827 32.819-18.131 0-32.819-14.697-32.819-32.819 0-18.131 14.688-32.827 32.819-32.827 18.13 0 32.827 14.697 32.827 32.827z" fill="#ffbc00"/><path d="m184.236 300.958c0 18.122-14.697 32.819-32.827 32.819v-65.646c18.13 0 32.827 14.697 32.827 32.827z" fill="#ff9100"/><path d="m165.889 300.956c0 7.992-6.482 14.474-14.478 14.474s-14.474-6.482-14.474-14.474c0-7.996 6.478-14.478 14.474-14.478s14.478 6.482 14.478 14.478z" fill="#a44f3e"/><path d="m165.889 300.956c0 7.992-6.482 14.474-14.478 14.474v-28.952c7.996 0 14.478 6.482 14.478 14.478z" fill="#964235"/></g><g><path d="m439.628 300.958c0-6.098-2.154-11.626-5.7-15.942-3.538-4.308-8.477-7.396-14.048-8.624 6.15-9.611 5.216-22.707-3.408-31.331-4.939-4.939-11.358-7.353-17.75-7.353-4.749 0-9.481 1.332-13.581 3.953-2.448-11.141-12.37-19.748-24.558-19.748-6.098 0-11.617 2.154-15.934 5.692-4.308 3.547-7.396 8.486-8.624 14.057-9.61-6.15-22.707-5.216-31.331 3.4-4.948 4.948-7.361 11.358-7.361 17.75 0 4.749 1.341 9.48 3.962 13.581-11.15 2.448-19.748 12.37-19.748 24.566 0 6.09 2.145 11.626 5.692 15.934s8.477 7.405 14.057 8.624c-6.15 9.61-5.225 22.707 3.4 31.331 4.948 4.939 11.366 7.353 17.75 7.353 4.749 0 9.48-1.332 13.581-3.953 2.448 11.141 12.37 19.748 24.558 19.748 6.098 0 11.617-2.154 15.934-5.7 4.308-3.538 7.396-8.477 8.624-14.048 9.61 6.15 22.715 5.216 31.331-3.4 4.948-4.948 7.361-11.366 7.361-17.759 0-4.749-1.332-9.472-3.953-13.572 11.139-2.449 19.746-12.37 19.746-24.559z" fill="#ffe164"/><path d="m419.88 325.516c2.621 4.1 3.953 8.823 3.953 13.572 0 6.392-2.413 12.811-7.361 17.759-8.616 8.616-21.721 9.55-31.331 3.4-1.228 5.571-4.316 10.51-8.624 14.048-4.316 3.546-9.835 5.7-15.934 5.7v-158.082c12.188 0 22.11 8.607 24.558 19.748 4.1-2.621 8.832-3.953 13.581-3.953 6.392 0 12.811 2.413 17.75 7.353 8.624 8.624 9.559 21.72 3.408 31.331 5.571 1.228 10.51 4.316 14.048 8.624 3.547 4.317 5.7 9.844 5.7 15.942 0 12.189-8.607 22.11-19.748 24.558z" fill="#fed500"/><path d="m393.41 300.958c0 18.122-14.697 32.819-32.827 32.819s-32.819-14.697-32.819-32.819c0-18.131 14.688-32.827 32.819-32.827s32.827 14.697 32.827 32.827z" fill="#ffbc00"/><path d="m393.41 300.958c0 18.122-14.697 32.819-32.827 32.819v-65.646c18.131 0 32.827 14.697 32.827 32.827z" fill="#ff9100"/><path d="m375.063 300.956c0 7.992-6.482 14.474-14.478 14.474s-14.474-6.482-14.474-14.474c0-7.996 6.478-14.478 14.474-14.478 7.997 0 14.478 6.482 14.478 14.478z" fill="#a44f3e"/><path d="m375.063 300.956c0 7.992-6.482 14.474-14.478 14.474v-28.952c7.997 0 14.478 6.482 14.478 14.478z" fill="#964235"/></g></g><g><path d="m480.47 347.02c-4.75 0-9.48 1.33-13.58 3.95-2.45-11.14-12.37-19.75-24.56-19.75-6.1 0-11.62 2.16-15.93 5.69-4.31 3.55-7.4 8.49-8.63 14.06-9.61-6.15-22.7-5.21-31.33 3.4-4.95 4.95-7.36 11.36-7.36 17.75 0 4.75 1.34 9.48 3.96 13.58-11.15 2.45-19.75 12.37-19.75 24.57 0 6.09 2.15 11.62 5.7 15.93 3.54 4.31 8.47 7.41 14.05 8.63-6.15 9.61-5.22 22.7 3.4 31.33 2.34 2.33 5 4.1 7.84 5.31 17.61-11.32 33.75-24.75 48.05-39.92 21.88-23.22 39.48-50.54 51.51-80.68-4.09-2.58-8.74-3.85-13.37-3.85z" fill="#ffe164"/><path d="m493.84 350.87c-12.03 30.14-29.63 57.46-51.51 80.68v-100.33c12.19 0 22.11 8.61 24.56 19.75 4.1-2.62 8.83-3.95 13.58-3.95 4.63 0 9.28 1.27 13.37 3.85z" fill="#fed500"/><path d="m471.22 394.67c-8.51 13.17-18.19 25.52-28.89 36.88-3.23 3.43-6.55 6.76-9.97 10-13.25-4.22-22.85-16.63-22.85-31.28 0-18.13 14.69-32.83 32.82-32.83 12.48 0 23.34 6.97 28.89 17.23z" fill="#ffbc00"/><path d="m471.22 394.67c-8.51 13.17-18.19 25.52-28.89 36.88v-54.11c12.48 0 23.34 6.97 28.89 17.23z" fill="#ff9100"/></g><path d="m402.55 242.45v170.34h-46.16v-34h12.16v-136.34c0-62.06-50.49-112.55-112.55-112.55s-112.55 50.49-112.55 112.55v136.34h12.16v34h-46.16v-170.34c0-80.81 65.74-146.55 146.55-146.55s146.55 65.74 146.55 146.55z" fill="#a44f3e"/><path d="m402.55 242.45v170.34h-46.16v-34h12.16v-136.34c0-62.06-50.49-112.55-112.55-112.55v-34c80.81 0 146.55 65.74 146.55 146.55z" fill="#964235"/><path d="m385.55 242.45v153.34h-29.16v-17h12.16v-136.34c0-62.06-50.49-112.55-112.55-112.55s-112.55 50.49-112.55 112.55v136.34h12.16v17h-29.16v-153.34c0-71.55 58-129.55 129.55-129.55s129.55 58 129.55 129.55z" fill="#964235"/><path d="m385.55 242.45v153.34h-29.16v-17h12.16v-136.34c0-62.06-50.49-112.55-112.55-112.55v-17c71.55 0 129.55 58 129.55 129.55z" fill="#87342b"/><g><path d="m164.558 364.518h182.884v101.102h-182.884z" fill="#c5ecfb"/><g><g><g><path d="m214.118 149.855c17.613 46.888 21.661 92.977 13.637 126.49-28.105-19.941-55.402-57.297-73.016-104.185-5.393-14.357-9.514-28.639-12.407-42.508-6.726-32.253 36.965-48.665 53.137-19.961 6.955 12.344 13.256 25.807 18.649 40.164z" fill="#fff"/><path d="m170.942 112.901c-1.759 0-3.3.441-4.281.809-2.57.965-8.363 4.092-6.66 12.258 2.761 13.238 6.676 26.645 11.635 39.846 10.561 28.114 25.398 53.629 41.99 72.919-.211-25.443-5.843-54.416-16.404-82.53-4.96-13.204-10.84-25.872-17.477-37.651-2.532-4.495-5.953-5.651-8.803-5.651z" fill="#ffc0a4"/><path d="m297.882 149.855c-17.613 46.888-21.661 92.977-13.637 126.49 28.105-19.941 55.403-57.297 73.016-104.185 5.393-14.357 9.514-28.639 12.407-42.508 6.726-32.253-36.965-48.665-53.137-19.961-6.955 12.344-13.256 25.807-18.649 40.164z" fill="#c5ecfb"/><path d="m332.246 118.552c-6.637 11.779-12.517 24.447-17.477 37.651-10.561 28.114-16.193 57.087-16.404 82.53 16.592-19.29 31.429-44.805 41.99-72.919 4.959-13.201 8.873-26.607 11.635-39.846 1.703-8.166-4.09-11.293-6.66-12.258-.98-.368-2.522-.809-4.281-.809-2.85 0-6.27 1.156-8.803 5.651z" fill="#ffa87a"/></g><g><path d="m352.906 309.517c0 .522 0 1.052-.01 1.582-.542 41.387-37.191 74.492-81.678 74.492h-30.446c-44.23 0-80.833-32.76-81.659-73.918-.01-.566-.019-1.14-.019-1.706 0-49.803 43.385-90.174 96.906-90.174 53.483.001 96.64 39.947 96.906 89.724z" fill="#fff"/><path d="m352.906 309.517c0 .522 0 1.052-.01 1.582-.542 41.387-37.191 74.492-81.678 74.492h-15.218v-165.797c53.483 0 96.64 39.946 96.906 89.723z" fill="#c5ecfb"/></g><g><path d="m291.352 324.133c-.243 1.758-.659 3.458-1.238 5.1-.914 2.625-2.209 5.031-3.851 7.217-.648.879-1.365 1.7-2.105 2.486-5.204 5.505-12.617 8.87-20.643 8.87h-15.011c-8.038 0-15.439-3.365-20.62-8.87-.74-.786-1.457-1.608-2.105-2.486-1.631-2.163-2.949-4.591-3.863-7.217-.648-1.804-1.087-3.701-1.33-5.678-.208-1.457-.278-2.949-.278-4.464 0-19.729 15.971-35.712 35.689-35.7.833 0 1.677.023 2.521.093 17.636 1.202 31.93 15.52 33.087 33.168.175 2.554.082 5.052-.253 7.481z" fill="#ffc0a4"/><path d="m291.352 324.133c-.243 1.758-.659 3.458-1.238 5.1-.914 2.625-2.209 5.031-3.851 7.217-.648.879-1.365 1.7-2.105 2.486-5.204 5.505-12.617 8.87-20.643 8.87h-7.517v-64.416c.833 0 1.677.023 2.521.093 17.636 1.202 31.93 15.52 33.087 33.168.174 2.555.081 5.053-.254 7.482z" fill="#ffa87a"/><path d="m279.51 331.771c-5.166 7.449-13.761 12.328-23.51 12.328s-18.353-4.879-23.51-12.328c-3.268-4.718.152-11.182 5.882-11.182h6.733c5.792 6.544 15.999 6.544 21.791 0h6.724c5.738 0 9.158 6.464 5.89 11.182z" fill="#1a3760"/><path d="m279.51 331.771c-5.166 7.449-13.761 12.328-23.51 12.328v-18.604c4.002 0 8.004-1.638 10.896-4.906h6.724c5.738 0 9.158 6.464 5.89 11.182z" fill="#162352"/><path d="m266.982 321.915c0 6.066-4.915 10.991-10.982 10.991s-10.982-4.925-10.982-10.991c0-.448.027-.895.082-1.325h21.8c.054.43.082.878.082 1.325z" fill="#fff"/><path d="m266.982 321.915c0 6.066-4.915 10.991-10.982 10.991v-12.316h10.9c.054.43.082.878.082 1.325z" fill="#dff7fd"/><path d="m270.265 305.386c0 1.142-.441 2.299-1.431 3.205-3.631 3.327-8.236 4.993-12.834 4.993s-9.203-1.667-12.834-4.993c-2.954-2.71-1.035-7.635 2.976-7.635h19.715c2.665 0 4.408 2.177 4.408 4.43z" fill="#964235"/><path d="m270.265 305.386c0 1.142-.441 2.299-1.431 3.205-3.631 3.327-8.236 4.993-12.834 4.993v-12.628h9.858c2.664 0 4.407 2.177 4.407 4.43z" fill="#87342b"/></g><g><ellipse cx="214.554" cy="283.47" fill="#1a3760" rx="13.933" ry="13.933" transform="matrix(.985 -.171 .171 .985 -45.229 40.774)"/><ellipse cx="297.446" cy="283.47" fill="#162352" rx="13.933" ry="13.933" transform="matrix(.998 -.057 .057 .998 -15.611 17.341)"/></g><g><circle cx="195.902" cy="320.851" fill="#f69" r="18.158"/><circle cx="316.098" cy="320.851" fill="#ff3f83" r="18.158"/></g></g></g><g><path d="m414.03 396.12v30.94h-316.06v-30.94c0-17.45 14.15-31.6 31.61-31.6 17.45 0 31.6 14.15 31.6 31.6 0-17.45 14.15-31.6 31.61-31.6 17.45 0 31.6 14.15 31.6 31.6 0-17.45 14.15-31.6 31.61-31.6s31.61 14.15 31.61 31.6c0-17.45 14.15-31.6 31.6-31.6 17.46 0 31.61 14.15 31.61 31.6 0-17.45 14.15-31.6 31.6-31.6 17.46 0 31.61 14.15 31.61 31.6z" fill="#a44f3e"/><path d="m414.03 396.12v30.94h-158.03v-62.54c17.46 0 31.61 14.15 31.61 31.6 0-17.45 14.15-31.6 31.6-31.6 17.46 0 31.61 14.15 31.61 31.6 0-17.45 14.15-31.6 31.6-31.6 17.46 0 31.61 14.15 31.61 31.6z" fill="#964235"/><path d="m414.03 427.06v15.07c0 5.81-.77 11.54-2.27 17.05-5.64 4.33-11.47 8.43-17.48 12.29-39.88 25.65-87.34 40.53-138.28 40.53s-98.41-14.88-138.29-40.53c-5.99-3.86-11.82-7.96-17.46-12.28-1.5-5.52-2.28-11.25-2.28-17.06v-15.07z" fill="#964235"/><path d="m414.03 427.06v15.07c0 5.81-.77 11.54-2.27 17.05-5.64 4.33-11.47 8.43-17.48 12.29-39.88 25.65-87.34 40.53-138.28 40.53v-84.94z" fill="#87342b"/></g><g><g><path d="m376.714 371.8v23.669c0 4.453-3.422 8.284-7.869 8.493-4.749.224-8.669-3.56-8.669-8.26 0 4.567-3.702 8.269-8.269 8.269s-8.269-3.702-8.269-8.269c0 4.7-3.92 8.483-8.669 8.26-4.448-.209-7.869-4.041-7.87-8.493v-23.669c0-13.701 11.107-24.808 24.807-24.808 13.701 0 24.808 11.107 24.808 24.808z" fill="#c5ecfb"/></g><g><path d="m184.901 371.8v23.669c0 4.453-3.422 8.284-7.869 8.493-4.749.224-8.669-3.56-8.669-8.26 0 4.567-3.702 8.269-8.269 8.269s-8.269-3.702-8.269-8.269c0 4.7-3.92 8.483-8.669 8.26-4.448-.209-7.869-4.041-7.869-8.493v-23.669c0-13.701 11.107-24.808 24.808-24.808 13.699 0 24.806 11.107 24.806 24.808z" fill="#fff"/></g></g></g></g><g><g><path d="m454.884 410.265c0 6.929-5.619 12.548-12.551 12.548s-12.548-5.619-12.548-12.548c0-6.932 5.616-12.551 12.548-12.551s12.551 5.619 12.551 12.551z" fill="#a44f3e"/><path d="m454.884 410.265c0 6.929-5.619 12.548-12.551 12.548v-25.1c6.932.001 12.551 5.62 12.551 12.552z" fill="#964235"/></g></g></g></svg>