<?xml version="1.0" encoding="iso-8859-1"?>
<!-- Generator: Adobe Illustrator 19.0.0, SVG Export Plug-In . SVG Version: 6.00 Build 0)  -->
<svg version="1.1" id="Capa_1" xmlns="http://www.w3.org/2000/svg" xmlns:xlink="http://www.w3.org/1999/xlink" x="0px" y="0px"
	 viewBox="0 0 512 512" style="enable-background:new 0 0 512 512;" xml:space="preserve">
<circle style="fill:#F24976;" cx="256" cy="267" r="245"/>
<rect x="108.99" y="236.96" style="fill:#FFFFFF;" width="13" height="199.54"/>
<g>
	<path style="fill:#00CCBD;" d="M131.442,220.393c-5.201,0.872-10.528,1.328-15.953,1.328s-10.753-0.456-15.953-1.328
		c-3.333,1.26-5.708,4.472-5.708,8.247c0,4.874,3.952,8.824,8.825,8.824h25.672c4.876,0,8.826-3.95,8.826-8.824
		C137.151,224.864,134.776,221.652,131.442,220.393z"/>
	<path style="fill:#00CCBD;" d="M104,228.64c0-2.993,1.494-5.634,3.772-7.229c-2.777-0.222-5.524-0.563-8.236-1.019
		c-3.333,1.26-5.708,4.472-5.708,8.247c0,4.874,3.952,8.824,8.825,8.824h10.172C107.952,237.464,104,233.514,104,228.64z"/>
	<ellipse style="fill:#00CCBD;" cx="115.49" cy="111.11" rx="103.49" ry="111.11"/>
</g>
<path style="fill:#009186;" d="M33,111.11C33,53.553,73.765,6.216,125.989,0.566C122.537,0.192,119.034,0,115.489,0
	C58.333,0,12,49.747,12,111.11c0,61.364,46.333,111.11,103.489,111.11c3.544,0,7.047-0.192,10.5-0.566
	C73.765,216.005,33,168.669,33,111.11z"/>
<ellipse transform="matrix(-0.5277 -0.8494 0.8494 -0.5277 210.9144 237.3579)" style="fill:#47EADA;" cx="171.444" cy="60.044" rx="24.999" ry="20.237"/>
<g>
	<path style="fill:#D9EAFC;" d="M210.731,438.712c0-4.004,0.246-7.98,0.711-11.911l-34.509,72.154
		c10.937,3.727,22.226,6.693,33.797,8.856v-69.099H210.731z"/>
	<path style="fill:#D9EAFC;" d="M378.728,362h-133.57c-21.4,18.647-34.927,46.099-34.927,76.712v69.002
		C225.06,510.516,240.356,512,256,512c60.051,0,115.045-21.617,157.655-57.478v-15.81C413.655,408.099,400.129,380.647,378.728,362z
		"/>
</g>
<g>
	<path style="fill:#C3DDF4;" d="M245.158,362c-21.4,18.647-34.927,46.099-34.927,76.712v69.002
		c6.827,1.29,13.756,2.286,20.769,3.001v-72.003c0-30.613,13.527-58.065,34.929-76.712H245.158z"/>
	<path style="fill:#C3DDF4;" d="M311.943,380.23c-38.457,0-69.632,31.176-69.632,69.632v61.751C246.844,511.862,251.405,512,256,512
		c45.904,0,88.851-12.637,125.575-34.603v-27.535C381.575,411.406,350.4,380.23,311.943,380.23z"/>
</g>
<path style="fill:#AEC3D3;" d="M263,449.862c0-34.94,25.737-63.865,59.287-68.862c-3.375-0.503-6.828-0.77-10.344-0.77
	c-38.457,0-69.632,31.176-69.632,69.632v61.751C246.844,511.862,251.405,512,256,512c2.342,0,4.674-0.041,7-0.106V449.862z"/>
<g>
	<path style="fill:#C3DDF4;" d="M293.252,127.551c2.059-11.736,3.217-24.922,3.217-38.862C296.469,39.708,282.198,0,264.592,0
		c-17.605,0-31.877,39.708-31.877,88.688c0,22.908,3.122,43.786,8.246,59.524C256.127,137.418,273.957,130.137,293.252,127.551z"/>
	<path style="fill:#C3DDF4;" d="M376.926,148.213c5.124-15.738,8.246-36.616,8.246-59.524C385.172,39.708,370.9,0,353.294,0
		c-17.605,0-31.877,39.708-31.877,88.688c0,13.939,1.157,27.126,3.217,38.862C343.93,130.137,361.76,137.418,376.926,148.213z"/>
</g>
<g>
	<path style="fill:#FF9F60;" d="M277.691,130.727c2.254-10.494,4.119-24.48,4.119-42.038c0-34.811-7.333-55.604-10.485-62.928
		c-1.159-2.688-3.804-4.43-6.731-4.43h-0.002c-2.927,0-5.573,1.742-6.731,4.43c-3.153,7.324-10.486,28.115-10.486,62.928
		c0,23.537,3.352,40.655,6.498,51.544C261.368,136.238,269.345,133.032,277.691,130.727z"/>
	<path style="fill:#FF9F60;" d="M364.014,140.231c3.146-10.888,6.499-28.007,6.499-51.543c0-34.811-7.333-55.604-10.484-62.928
		c-1.157-2.688-3.805-4.43-6.732-4.43h-0.002c-2.927,0-5.572,1.742-6.731,4.43c-3.152,7.323-10.486,28.111-10.486,62.928
		c0,17.558,1.865,31.543,4.119,42.038C348.542,133.032,356.518,136.237,364.014,140.231z"/>
</g>
<g>
	<path style="fill:#ED8754;" d="M263.159,135.789c-2.742-10.893-5.298-26.552-5.298-47.101c0-34.813,7.333-55.604,10.486-62.928
		c0.36-0.835,0.877-1.565,1.488-2.194c-1.354-1.395-3.225-2.235-5.242-2.235h-0.002c-2.927,0-5.573,1.742-6.731,4.43
		c-3.153,7.324-10.486,28.115-10.486,62.928c0,23.537,3.352,40.655,6.498,51.544C256.893,138.622,259.989,137.135,263.159,135.789z"
		/>
	<path style="fill:#ED8754;" d="M351.542,134.494c-2.618-10.824-4.978-26.056-4.978-45.806c0-34.816,7.334-55.604,10.486-62.928
		c0.36-0.836,0.878-1.566,1.489-2.195c-1.355-1.393-3.227-2.234-5.243-2.234h-0.002c-2.927,0-5.572,1.742-6.731,4.43
		c-3.152,7.323-10.486,28.111-10.486,62.928c0,17.558,1.865,31.543,4.119,42.038C344.06,131.794,347.847,133.052,351.542,134.494z"
		/>
</g>
<path style="fill:#D9EAFC;" d="M308.943,126c-65.17,0-118,52.83-118,118c0,12.171,1.844,23.911,5.266,34.958
	c7.63-5.625,17.049-8.958,27.234-8.958h18.025c-0.01-0.333-0.025-0.664-0.025-1c0-19.058,15.505-34.563,34.563-34.563h10.639
	c2.655-4.686,7.68-7.86,13.44-7.86h17.717c5.761,0,10.785,3.175,13.441,7.86h10.639c19.058,0,34.563,15.505,34.563,34.563
	c0,0.336-0.016,0.667-0.025,1h18.025c10.186,0,19.604,3.333,27.234,8.958c3.422-11.047,5.266-22.787,5.266-34.958
	C426.943,178.83,374.113,126,308.943,126z"/>
<g>
	<path style="fill:#C3DDF4;" d="M214.101,270.955C212.078,262.297,211,253.275,211,244c0-61.791,47.497-112.48,107.972-117.572
		c-3.307-0.277-6.649-0.428-10.028-0.428c-65.17,0-118,52.83-118,118c0,12.171,1.844,23.911,5.266,34.958
		C201.442,275.101,207.515,272.32,214.101,270.955z"/>
	<path style="fill:#C3DDF4;" d="M394.443,269.5H376.43c-0.27,18.827-15.66,34.063-34.55,34.063
		c-12.156,0-23.562-6.513-29.764-16.997c-0.66-1.116-1.876-1.81-3.174-1.81s-2.514,0.694-3.174,1.811
		c-6.202,10.483-17.607,16.996-29.764,16.996c-18.89,0-34.28-15.235-34.55-34.063h-18.013c-25.682,0-46.5,20.818-46.5,46.5
		s20.818,46.5,46.5,46.5h171c25.682,0,46.5-20.818,46.5-46.5S420.125,269.5,394.443,269.5z"/>
</g>
<path style="fill:#AEC3D3;" d="M197,316c0-24.996,19.724-45.379,44.457-46.448c0-0.018-0.001-0.034-0.001-0.052h-18.013
	c-25.682,0-46.5,20.818-46.5,46.5s20.818,46.5,46.5,46.5H243.5C217.818,362.5,197,341.682,197,316z"/>
<path style="fill:#FF9F60;" d="M341.881,303.563c-12.156,0-23.562-6.513-29.764-16.997c-0.66-1.116-1.876-1.81-3.174-1.81
	s-2.514,0.694-3.174,1.811c-6.202,10.483-17.607,16.996-29.764,16.996c-1.995,0-3.948-0.18-5.853-0.506
	C272.183,322.69,288.774,338,308.943,338s36.761-15.31,38.79-34.943C345.829,303.383,343.876,303.563,341.881,303.563z"/>
<path style="fill:#ED8754;" d="M290.033,300.542c-4.362,1.948-9.131,3.021-14.027,3.021c-1.995,0-3.948-0.18-5.853-0.506
	c2.03,19.633,18.621,34.943,38.79,34.943c3.468,0,6.828-0.459,10.028-1.308C302.77,332.393,290.709,317.931,290.033,300.542z"/>
<path style="fill:#FFD3B6;" d="M312.117,286.565c-0.66-1.116-1.876-1.81-3.174-1.81s-2.514,0.694-3.174,1.811
	c-4.334,7.326-11.213,12.703-19.11,15.283c0.259,3.377,3.097,6.063,6.537,6.063h9.186c3.609,0,6.563-2.954,6.563-6.564
	c0,3.609,2.95,6.564,6.56,6.564h9.188c3.44,0,6.276-2.686,6.535-6.063C323.33,299.27,316.451,293.893,312.117,286.565z"/>
<g>
	<path style="fill:#183889;" d="M253.443,215.5c7.589,0,14,9.159,14,20l0.001,0.012c2.738-0.7,5.608-1.074,8.562-1.074h6.415
		c-0.468-18.809-13.282-33.938-28.977-33.938c-15.991,0-29,15.701-29,35c0,4.143,3.358,7.5,7.5,7.5s7.5-3.357,7.5-7.5
		C239.443,224.659,245.854,215.5,253.443,215.5z"/>
	<path style="fill:#183889;" d="M364.443,200.5c-15.695,0-28.51,15.129-28.978,33.938h6.415c2.954,0,5.822,0.374,8.562,1.074
		l0.001-0.012c0-10.841,6.411-20,14-20s14,9.159,14,20c0,4.143,3.357,7.5,7.5,7.5s7.5-3.357,7.5-7.5
		C393.443,216.201,380.434,200.5,364.443,200.5z"/>
</g>
<path style="fill:#FFFFFF;" d="M341.881,233.938h-10.943c1.456,2.355,2.311,5.12,2.311,8.087c0,8.518-6.93,15.447-15.448,15.447
	h-17.717c-8.518,0-15.446-6.93-15.446-15.447c0-2.967,0.855-5.731,2.311-8.087h-10.942c-19.334,0-35.063,15.729-35.063,35.063
	s15.729,35.063,35.063,35.063c12.333,0,23.902-6.607,30.194-17.242c0.573-0.971,1.616-1.565,2.743-1.565s2.17,0.595,2.743,1.565
	c6.292,10.635,17.861,17.242,30.194,17.242c19.334,0,35.063-15.728,35.063-35.063S361.215,233.938,341.881,233.938z"/>
<path style="fill:#E6E9ED;" d="M261,269c0-15.898,10.638-29.349,25.166-33.631c0.236-0.492,0.497-0.97,0.782-1.432h-10.942
	c-19.334,0-35.063,15.729-35.063,35.063s15.729,35.063,35.063,35.063c3.418,0,6.77-0.524,9.975-1.484
	C271.547,298.236,261,284.83,261,269z"/>
<path style="fill:#FF9F60;" d="M333.749,242.024c0,8.808-7.14,15.947-15.948,15.947h-17.717c-8.808,0-15.946-7.14-15.946-15.947l0,0
	c0-8.808,7.139-15.947,15.946-15.947h17.717C326.609,226.077,333.749,233.217,333.749,242.024L333.749,242.024z"/>
<path style="fill:#ED8754;" d="M305,242.024c0-8.276,6.305-15.077,14.374-15.868c-0.518-0.051-1.042-0.079-1.573-0.079h-17.717
	c-8.808,0-15.946,7.14-15.946,15.947s7.139,15.947,15.946,15.947h17.717c0.531,0,1.055-0.028,1.573-0.079
	C311.305,257.102,305,250.301,305,242.024z"/>
<circle style="fill:#FF9F60;" cx="216.44" cy="316" r="22.5"/>
<path style="fill:#ED8754;" d="M204,316c0-10.697,7.467-19.645,17.472-21.929c-1.618-0.37-3.299-0.571-5.028-0.571
	c-12.427,0-22.5,10.073-22.5,22.5s10.073,22.5,22.5,22.5c1.73,0,3.411-0.201,5.028-0.571C211.467,335.645,204,326.697,204,316z"/>
<circle style="fill:#FF9F60;" cx="401.44" cy="316" r="22.5"/>
<path style="fill:#ED8754;" d="M389,316c0-10.697,7.468-19.645,17.472-21.929c-1.617-0.37-3.299-0.571-5.028-0.571
	c-12.426,0-22.5,10.073-22.5,22.5s10.074,22.5,22.5,22.5c1.73,0,3.411-0.201,5.028-0.571C396.468,335.645,389,326.697,389,316z"/>
<path style="fill:#D9EAFC;" d="M141.583,436h-40c-5.5,0-10,4.5-10,10v2.633c17.812,16.134,38.012,29.673,60,40.049V446
	C151.583,440.5,147.083,436,141.583,436z"/>
<path style="fill:#C3DDF4;" d="M112,446c0-5.5,4.5-10,10-10h-20.417c-5.5,0-10,4.5-10,10v2.633
	c6.497,5.885,13.314,11.419,20.417,16.586V446z"/>
<g>
</g>
<g>
</g>
<g>
</g>
<g>
</g>
<g>
</g>
<g>
</g>
<g>
</g>
<g>
</g>
<g>
</g>
<g>
</g>
<g>
</g>
<g>
</g>
<g>
</g>
<g>
</g>
<g>
</g>
</svg>
