<svg height="512pt" viewBox="0 0 512 511" width="512pt" xmlns="http://www.w3.org/2000/svg"><g fill="#fb7b76"><path d="m441.378906 436.871094v-16.964844c8.207032-4.367188 15.769532-9.84375 22.476563-16.28125 12.402343-10.472656 20.183593-25.410156 21.660156-41.574219-.164063-14.394531-6.167969-28.097656-16.628906-37.980469-10.464844-9.882812-24.492188-15.09375-38.867188-14.441406-15.6875-44.339844-47.355469-81.230468-88.808593-103.449218l4.414062-17.65625 31.867188-126.234376c4.628906-17.929687-1.152344-36.945312-14.976563-49.261718-13.828125-12.320313-33.378906-15.878906-50.660156-9.21875-17.28125 6.65625-29.390625 22.414062-31.375 40.828125l-13.710938 122.816406-1.941406 17.480469.644531.394531c-3.160156-.15625-6.277344-.484375-9.472656-.484375s-6.390625.328125-9.585938.496094l.882813-.230469-1.941406-17.65625-13.808594-122.792969c-1.984375-18.410156-14.09375-34.167968-31.375-40.828125-17.28125-6.65625-36.832031-3.097656-50.660156 9.21875-13.824219 12.320313-19.609375 31.335938-14.980469 49.265625l32.132812 126.148438 4.414063 17.476562.503906-.132812c-41.8125 22.160156-73.777343 59.210937-89.566406 103.820312-15.265625-1.242187-30.246094 4.683594-40.527344 16.042969-9.832031 9.515625-15.269531 22.695313-15.003906 36.378906 1.460937 16.15625 9.230469 31.089844 21.617187 41.566407 6.71875 6.445312 14.296876 11.925781 22.519532 16.289062v16.964844c-43.785156 7.945312-70.621094 18.625-70.621094 30.457031 0 24.363281 114.582031 44.136719 256 44.136719s256-19.773438 256-44.136719c0-11.832031-26.835938-22.511719-70.621094-30.457031zm0 0"/><path d="m424.058594 228.167969c3.265625-.617188 30.640625-5.9375 37.121094-12.417969 4.460937-4.460938 6.203124-10.964844 4.570312-17.058594s-6.394531-10.851562-12.488281-12.484375c-6.09375-1.632812-12.59375.109375-17.054688 4.570313-6.480469 6.488281-11.804687 33.851562-12.421875 37.128906l-.0625.324219zm0 0"/><path d="m444.953125 260.761719c1.847656 2.648437 17.921875 25.546875 26.484375 28.832031 9.109375 3.480469 19.316406-1.082031 22.796875-10.191406s-1.082031-19.316406-10.191406-22.800782c-9.109375-3.476562-39.292969 3.894532-39.292969 3.894532zm0 0"/><path d="m89.015625 228.167969.328125.0625-.0625-.324219c-.617188-3.277344-5.941406-30.640625-12.417969-37.128906-6.929687-6.691406-17.941406-6.597656-24.75.214844-6.8125 6.808593-6.90625 17.820312-.214843 24.75 6.476562 6.488281 33.851562 11.808593 37.117187 12.425781zm0 0"/><path d="m41.613281 289.609375c8.582031-3.285156 24.65625-26.171875 26.484375-28.832031l.183594-.261719s-30.179688-7.371094-39.28125-3.894531c-9.109375 3.476562-13.675781 13.683594-10.195312 22.792968 3.476562 9.109376 13.679687 13.675782 22.789062 10.195313zm0 0"/></g><path d="m338.449219 1.496094c-13.480469-2.441406-27.371094.816406-38.363281 9-10.992188 8.179687-18.101563 20.550781-19.632813 34.164062l-13.683594 122.792969-1.941406 17.480469 11.652344 7.238281 42.636719 26.660156 16.332031 10.148438 10.152343-40.429688 31.867188-126.234375c3.378906-13.273437 1.097656-27.355468-6.300781-38.886718-7.394531-11.527344-19.242188-19.472657-32.71875-21.933594zm0 0" fill="#bdc3c7"/><path d="m231.546875 44.660156c-1.984375-18.410156-14.09375-34.167968-31.375-40.828125-17.28125-6.65625-36.832031-3.097656-50.660156 9.21875-13.824219 12.320313-19.609375 31.335938-14.980469 49.265625l32.132812 126.148438 4.414063 17.476562 17.300781-4.679687 46.613282-12.796875 12.269531-3.355469-1.941407-17.65625zm0 0" fill="#bdc3c7"/><path d="m377.46875 62.316406-31.867188 126.234375c-5.449218-2.804687-11.050781-5.308593-16.773437-7.503906-15.691406-6.238281-32.132813-10.394531-48.90625-12.359375-4.324219-.617188-8.738281-.96875-13.152344-1.234375l13.683594-122.792969c1.984375-18.410156 14.09375-34.167968 31.375-40.828125 17.28125-6.65625 36.832031-3.097656 50.660156 9.21875 13.824219 12.320313 19.609375 31.335938 14.980469 49.265625zm0 0" fill="#bdc3c7"/><path d="m441.378906 436.871094c43.785156 7.945312 70.621094 18.625 70.621094 30.457031 0 24.363281-114.582031 44.136719-256 44.136719s-256-19.773438-256-44.136719c0-11.832031 26.835938-22.511719 70.621094-30.457031zm0 0" fill="#35495e"/><path d="m409.414062 436.871094c36.238282 7.945312 58.449219 18.625 58.449219 30.457031 0 24.363281-94.828125 44.136719-211.863281 44.136719s-211.863281-19.773438-211.863281-44.136719c0-11.832031 22.210937-22.511719 58.449219-30.457031zm0 0" fill="#2c3e50"/><path d="m245.320312 167.453125c-4.503906.265625-8.828124.617187-13.242187 1.234375-16.773437 1.964844-33.214844 6.121094-48.90625 12.359375-5.625 2.183594-11.136719 4.660156-16.507813 7.417969l-32.132812-126.148438c-4.628906-17.929687 1.15625-36.945312 14.980469-49.265625 13.828125-12.316406 33.378906-15.875 50.660156-9.21875 17.28125 6.660157 29.390625 22.417969 31.375 40.828125zm0 0" fill="#bdc3c7"/><path d="m232.078125 168.6875c-16.773437 1.964844-33.214844 6.121094-48.90625 12.359375l-31.515625-123.054687c-2.207031-8.535157-.757812-17.605469 4-25.027344 4.757812-7.417969 12.394531-12.523438 21.070312-14.078125 1.894532-.355469 3.816407-.535157 5.738282-.53125 16.167968.011719 29.742187 12.179687 31.515625 28.25zm0 0" fill="#ff5364"/><path d="m238.34375 211.328125-44.3125 12.09375-5.652344-22.160156 46.613282-12.796875zm0 0" fill="#ff5364"/><path d="m276.480469 192.171875 42.636719 26.660156-1.148438 4.589844-44.3125-12.09375zm0 0" fill="#ff5364"/><path d="m360.34375 57.992188-31.515625 123.054687c-15.691406-6.238281-32.132813-10.394531-48.90625-12.359375l18.097656-122.082031c1.773438-16.070313 15.347657-28.238281 31.515625-28.25 1.921875-.003907 3.84375.175781 5.738282.53125 8.675781 1.554687 16.3125 6.660156 21.070312 14.078125 4.757812 7.421875 6.207031 16.492187 4 25.027344zm0 0" fill="#ff5364"/><path d="m234.992188 188.464844-46.613282 12.796875-5.207031-20.214844c15.691406-6.238281 32.132813-10.394531 48.90625-12.359375zm0 0" fill="#df4d60"/><path d="m188.378906 201.261719-17.300781 4.679687-4.414063-17.476562c5.371094-2.757813 10.882813-5.234375 16.507813-7.417969zm0 0" fill="#95a5a5"/><path d="m247.261719 185.109375-12.269531 3.355469-2.914063-19.777344c4.414063-.617188 8.738281-.96875 13.242187-1.234375zm0 0" fill="#95a5a5"/><path d="m234.992188 188.464844 3.351562 22.863281-44.3125 12.09375-5.652344-22.160156zm0 0" fill="#bdc3c7"/><path d="m328.828125 181.046875-9.710937 37.785156-42.636719-26.660156 3.441406-23.484375c16.773437 1.964844 33.214844 6.121094 48.90625 12.359375zm0 0" fill="#df4d60"/><path d="m279.921875 168.6875-3.441406 23.484375-11.652344-7.238281 1.941406-17.480469c4.414063.265625 8.828125.617187 13.152344 1.234375zm0 0" fill="#95a5a5"/><path d="m276.480469 192.171875 42.636719 26.660156-1.148438 4.589844-44.3125-12.09375zm0 0" fill="#bdc3c7"/><path d="m345.601562 188.550781-10.152343 40.429688-16.332031-10.148438 9.710937-37.785156c5.722656 2.195313 11.324219 4.699219 16.773437 7.503906zm0 0" fill="#95a5a5"/><path d="m441.378906 458.5v-83.863281c1.207032-103.597657-81.78125-188.5625-185.378906-189.792969-103.597656 1.230469-186.585938 86.195312-185.378906 189.792969v83.863281s44.136718 26.480469 185.378906 26.480469 185.378906-26.480469 185.378906-26.480469zm0 0" fill="#bdc3c7"/><path d="m406.121094 466.265625c10.582031-3.726563 17.644531-13.742187 17.601562-24.960937v-66.667969c0-104.820313-75.09375-189.792969-167.722656-189.792969s-167.722656 84.972656-167.722656 189.792969v66.667969c-.042969 11.21875 7.019531 21.234374 17.601562 24.960937 22.316406 7.8125 68.128906 18.714844 150.121094 18.714844s127.804688-10.902344 150.121094-18.714844zm0 0" fill="#e6e7e8"/><path d="m220.691406 263.3125c-2.34375 0-4.585937-.929688-6.242187-2.585938-2.898438-3.289062-7.070313-5.171874-11.453125-5.167968-4.382813.007812-8.550782 1.902344-11.4375 5.203125-3.476563 3.332031-8.984375 3.261719-12.378906-.15625-3.390626-3.421875-3.414063-8.929688-.050782-12.378907 6.207032-6.578124 14.851563-10.308593 23.898438-10.308593 9.042968 0 17.6875 3.730469 23.894531 10.308593 2.535156 2.519532 3.300781 6.324219 1.933594 9.628907-1.367188 3.304687-4.589844 5.460937-8.164063 5.457031zm0 0" fill="#2c3e50"/><path d="m326.621094 263.3125c-2.339844 0-4.585938-.929688-6.242188-2.585938-2.894531-3.289062-7.070312-5.171874-11.453125-5.167968-4.382812.007812-8.550781 1.902344-11.4375 5.203125-3.476562 3.332031-8.984375 3.261719-12.375-.15625-3.394531-3.421875-3.417969-8.929688-.054687-12.378907 6.210937-6.578124 14.855468-10.308593 23.898437-10.308593s17.6875 3.730469 23.894531 10.308593c2.535157 2.519532 3.300782 6.324219 1.933594 9.628907-1.363281 3.304687-4.589844 5.460937-8.164062 5.457031zm0 0" fill="#2c3e50"/><path d="m282.484375 334.914062v26.480469c0 14.628907-11.859375 26.484375-26.484375 26.484375s-26.484375-11.855468-26.484375-26.484375v-26.480469l26.484375-8.828124zm0 0" fill="#ff5364"/><path d="m134.3125 365.421875c-4.757812-11.308594-11.824219-21.496094-20.746094-29.917969-25.597656-24.566406-49.292968-20.769531-65.675781-3.726562-16.386719 17.046875-19.21875 40.917968 6.363281 65.484375 8.773438 8.574219 19.238282 15.21875 30.730469 19.507812" fill="#e6e7e8"/><path d="m377.6875 365.421875c4.757812-11.308594 11.824219-21.496094 20.746094-29.917969 25.597656-24.566406 49.292968-20.769531 65.675781-3.726562 16.386719 17.046875 19.21875 40.917968-6.363281 65.484375-8.773438 8.574219-19.238282 15.21875-30.730469 19.507812" fill="#e6e7e8"/><path d="m84.984375 425.597656c-1.019531.003906-2.03125-.171875-2.992187-.511718-12.65625-4.722657-24.1875-12.035157-33.855469-21.46875-12.402344-10.46875-20.179688-25.402344-21.652344-41.566407-.265625-13.683593 5.171875-26.863281 15.003906-36.378906 17.285157-18.019531 46.910157-26.5625 78.160157 3.476563 9.816406 9.277343 17.585937 20.5 22.8125 32.953124 1.832031 4.519532-.347657 9.667969-4.867188 11.503907-4.519531 1.832031-9.667969-.347657-11.5-4.867188-4.289062-10.152343-10.648438-19.300781-18.671875-26.859375-7.734375-8.707031-18.535156-14.085937-30.144531-15.007812-8.855469.398437-17.171875 4.382812-23.03125 11.035156-6.421875 6.128906-10.070313 14.609375-10.109375 23.488281 1.378906 11.574219 7.191406 22.164063 16.21875 29.539063 7.875 7.71875 17.277343 13.703125 27.601562 17.574218 4.039063 1.453126 6.449219 5.597657 5.710938 9.828126-.738281 4.226562-4.410157 7.308593-8.703125 7.308593zm0 0" fill="#bdc3c7"/><path d="m427.015625 425.597656c-4.289063.003906-7.960937-3.082031-8.699219-7.308594-.738281-4.226562 1.667969-8.371093 5.707032-9.824218 10.324218-3.871094 19.722656-9.855469 27.597656-17.566406 9.023437-7.363282 14.847656-17.9375 16.242187-29.503907-.871093-18.160156-15.019531-32.890625-33.132812-34.488281-11.605469.925781-22.410157 6.300781-30.144531 15.007812-8.023438 7.5625-14.378907 16.714844-18.671876 26.871094-1.832031 4.519532-6.980468 6.695313-11.5 4.863282-4.519531-1.832032-6.699218-6.984376-4.863281-11.503907 5.226563-12.453125 12.996094-23.679687 22.808594-32.960937 31.242187-30.011719 60.910156-21.484375 78.160156-3.46875 9.820313 9.507812 15.25 22.667968 14.996094 36.335937-1.46875 16.160157-9.238281 31.09375-21.625 41.574219-9.667969 9.433594-21.195313 16.742188-33.847656 21.460938-.96875.347656-1.996094.519531-3.027344.511718zm0 0" fill="#bdc3c7"/><path d="m461.179688 215.742188c-6.894532 6.902343-37.457032 12.488281-37.457032 12.488281s5.589844-30.558594 12.484375-37.453125c4.457031-4.460938 10.960938-6.207032 17.050781-4.574219 6.09375 1.632813 10.855469 6.390625 12.488282 12.484375 1.632812 6.089844-.105469 12.59375-4.566406 17.054688zm0 0" fill="#2fa8cc"/><path d="m455.6875 217.578125c-5.878906 5.886719-31.964844 10.652344-31.964844 10.652344s4.769532-26.085938 10.65625-31.964844c3.796875-3.851563 9.367188-5.371094 14.597656-3.984375 5.226563 1.386719 9.3125 5.46875 10.699219 10.699219 1.386719 5.226562-.132812 10.796875-3.988281 14.597656zm0 0" fill="#67b9cc"/><path d="m471.453125 289.609375c-9.109375-3.53125-26.683594-29.128906-26.683594-29.128906s30.179688-7.371094 39.292969-3.894531c9.109375 3.480468 13.671875 13.6875 10.191406 22.796874-3.484375 9.109376-13.6875 13.671876-22.800781 10.191407zm0 0" fill="#2fa8cc"/><path d="m467.976562 285.8125c-7.945312-3.027344-23.207031-25.296875-23.207031-25.296875s26.242188-6.410156 34.171875-3.382813c5.121094 1.957032 8.8125 6.5 9.675782 11.917969.867187 5.417969-1.222657 10.882813-5.480469 14.339844-4.257813 3.457031-10.035157 4.382813-15.160157 2.421875zm0 0" fill="#67b9cc"/><path d="m451.273438 200.679688c0 4.875-3.949219 8.828124-8.824219 8.828124-4.878907 0-8.828125-3.953124-8.828125-8.828124s3.949218-8.828126 8.828125-8.828126c4.875 0 8.824219 3.953126 8.824219 8.828126zm0 0" fill="#9fc9d3"/><path d="m486.585938 271.300781c0 4.875-3.953126 8.828125-8.828126 8.828125s-8.828124-3.953125-8.828124-8.828125 3.953124-8.828125 8.828124-8.828125 8.828126 3.953125 8.828126 8.828125zm0 0" fill="#9fc9d3"/><path d="m51.898438 215.742188c6.894531 6.894531 37.445312 12.480468 37.445312 12.480468s-5.585938-30.5625-12.480469-37.457031c-6.898437-6.890625-18.078125-6.890625-24.96875.007813-6.894531 6.894531-6.894531 18.074218.003907 24.96875zm0 0" fill="#2fa8cc"/><path d="m57.378906 217.578125c5.886719 5.886719 31.964844 10.652344 31.964844 10.652344s-4.765625-26.085938-10.65625-31.964844c-3.796875-3.851563-9.367188-5.371094-14.59375-3.984375-5.230469 1.386719-9.3125 5.46875-10.699219 10.699219-1.390625 5.226562.132813 10.796875 3.984375 14.597656zm0 0" fill="#67b9cc"/><path d="m41.613281 289.609375c9.109375-3.53125 26.6875-29.128906 26.6875-29.128906s-30.183593-7.371094-39.285156-3.894531c-9.109375 3.476562-13.671875 13.683593-10.195313 22.792968 3.480469 9.109375 13.683594 13.675782 22.792969 10.195313zm0 0" fill="#2fa8cc"/><path d="m45.089844 285.8125c7.945312-3.027344 23.210937-25.296875 23.210937-25.296875s-26.246093-6.410156-34.164062-3.382813c-5.15625 1.933594-8.878907 6.480469-9.757813 11.917969-.882812 5.433594 1.214844 10.921875 5.496094 14.386719 4.277344 3.464844 10.085938 4.371094 15.214844 2.375zm0 0" fill="#67b9cc"/><path d="m79.449219 200.679688c0 4.875-3.953125 8.828124-8.828125 8.828124s-8.828125-3.953124-8.828125-8.828124 3.953125-8.828126 8.828125-8.828126 8.828125 3.953126 8.828125 8.828126zm0 0" fill="#9fc9d3"/><path d="m44.136719 271.300781c0 4.875-3.949219 8.828125-8.828125 8.828125-4.875 0-8.824219-3.953125-8.824219-8.828125s3.949219-8.828125 8.824219-8.828125c4.878906 0 8.828125 3.953125 8.828125 8.828125zm0 0" fill="#9fc9d3"/><path d="m229.515625 343.742188c-4.875 0-8.824219-3.953126-8.824219-8.828126s3.949219-8.828124 8.824219-8.828124c4.84375.097656 9.503906-1.835938 12.859375-5.328126 3.351562-3.492187 5.089844-8.226562 4.796875-13.058593v-9.078125c0-4.875 3.953125-8.824219 8.828125-8.824219s8.828125 3.949219 8.828125 8.824219v9.078125c.363281 9.535156-3.214844 18.804687-9.894531 25.625-6.679688 6.816406-15.871094 10.585937-25.417969 10.417969zm0 0" fill="#802d40"/><path d="m282.484375 343.742188c-9.546875.167968-18.738281-3.601563-25.417969-10.417969-6.679687-6.820313-10.257812-16.089844-9.894531-25.625v-9.078125c0-4.875 3.953125-8.824219 8.828125-8.824219s8.828125 3.949219 8.828125 8.824219v9.078125c-.386719 4.855469 1.320313 9.644531 4.695313 13.160156 3.375 3.511719 8.089843 5.414063 12.960937 5.226563 4.875 0 8.824219 3.953124 8.824219 8.828124s-3.949219 8.828126-8.824219 8.828126zm0 0" fill="#802d40"/><path d="m256 307.449219c-6.441406.605469-12.859375-1.386719-17.828125-5.527344-4.972656-4.144531-8.085937-10.09375-8.65625-16.539063.566406-6.449218 3.679687-12.402343 8.652344-16.542968 4.972656-4.144532 11.390625-6.132813 17.832031-5.527344 6.441406-.605469 12.859375 1.382812 17.832031 5.527344 4.972657 4.140625 8.085938 10.09375 8.652344 16.542968-.570313 6.445313-3.683594 12.394532-8.65625 16.539063-4.96875 4.140625-11.386719 6.132813-17.828125 5.527344zm0 0" fill="#ff5364"/><path d="m203.035156 304.015625c0-7.3125-9.882812-13.242187-22.070312-13.242187s-22.066406 5.929687-22.066406 13.242187 9.878906 13.242187 22.066406 13.242187 22.070312-5.929687 22.070312-13.242187zm0 0" fill="#fb7b76"/><path d="m353.101562 304.015625c0-7.3125-9.878906-13.242187-22.066406-13.242187s-22.070312 5.929687-22.070312 13.242187 9.882812 13.242187 22.070312 13.242187 22.066406-5.929687 22.066406-13.242187zm0 0" fill="#fb7b76"/></svg>