<svg id="Capa_1" enable-background="new 0 0 497 497" height="512" viewBox="0 0 497 497" width="512" xmlns="http://www.w3.org/2000/svg"><g><path d="m323.24 0v299.5h45v-254.5c0-24.853-20.147-45-45-45z" fill="#ffe8c2"/><path d="m323.24 0c-24.853 0-45 20.147-45 45v254.5h30l30-254.5c0-24.853-6.716-45-15-45z" fill="#fff7eb"/><path d="m323.24 30c-8.284 0-15 6.716-15 15v254.5h30v-254.5c0-8.284-6.716-15-15-15z" fill="#ffd1bf"/><path d="m173.24 0v299.5h45v-254.5c0-24.853-20.147-45-45-45z" fill="#ffe8c2"/><path d="m173.24 0c-24.853 0-45 20.147-45 45v254.5h30l30-254.5c0-24.853-6.716-45-15-45z" fill="#fff7eb"/><path d="m173.5 30c-8.284 0-15 6.716-15 15v254.5h30v-254.5c0-8.284-6.716-15-15-15z" fill="#ffd1bf"/><path d="m394.64 343.36-26.399-26.14v-17.72c0-66.274-53.466-120-119.74-120l81.351 317.5c49.497 0 90.593-39.483 91.143-88.977.28-25.258-9.846-48.153-26.355-64.663z" fill="#ffe8c2"/><path d="m390.995 408.023.001-.333c.181-16.293-6.059-31.605-17.569-43.116l-34.927-34.927-15-15 15-15.147v-15c0-66.274-40.294-105-90-105-66.274 0-120.26 53.726-120.26 120v17.721l-25.88 26.14c-16.51 16.51-26.635 39.405-26.355 64.663.55 49.493 41.646 88.976 91.143 88.976h162.704c33.205 0 60.774-39.483 61.143-88.977z" fill="#fff7eb"/><path d="m308.5 284.5v15l15 22.5-15 22.5v92.5c0 33.137-26.863 60-60 60s-60-26.863-60-60v-92.5l-15-22.5 15-22.5v-15c0-33.137 26.863-60 60-60s60 26.863 60 60z" fill="#fff"/><path d="m173.5 359.5c-8.284 0-15-6.716-15-15v-45c0-8.284 6.716-15 15-15s15 6.716 15 15v45c0 8.284-6.716 15-15 15z" fill="#884969"/><path d="m323.5 359.5c8.284 0 15-6.716 15-15v-45c0-8.284-6.716-15-15-15s-15 6.716-15 15v45c0 8.284 6.716 15 15 15z" fill="#884969"/><path d="m278.5 429.5c-12.407 0-22.5-10.093-22.5-22.5 0-4.142 0-15 0-15h-15v15c0 12.407-10.093 22.5-22.5 22.5-4.142 0-7.5 3.358-7.5 7.5s3.358 7.5 7.5 7.5c12.253 0 23.153-5.907 30-15.023 6.847 9.116 17.747 15.023 30 15.023 4.142 0 7.5-3.358 7.5-7.5s-3.358-7.5-7.5-7.5z" fill="#ffe8c2"/><path d="m263.177 359.5h-29.354c-8.463 0-15.323 6.86-15.323 15.323 0 4.548 2.02 8.86 5.513 11.772l24.487 20.405 24.487-20.405c3.494-2.911 5.513-7.224 5.513-11.772 0-8.463-6.86-15.323-15.323-15.323z" fill="#ffd1bf"/></g></svg>